<svg xmlns="http://www.w3.org/2000/svg" viewBox="0 0 257.74 30.08"><defs><style>.cls-1{fill:#fff;}</style></defs><title>Asset 2</title><g id="Layer_2" data-name="Layer 2"><g id="Layer_1-2" data-name="Layer 1"><path class="cls-1" d="M38.59,0A14.74,14.74,0,0,1,53.77,15a14.74,14.74,0,0,1-15.18,15A14.71,14.71,0,0,1,23.41,15,14.71,14.71,0,0,1,38.59,0Zm0,23.55c5,0,8.17-3.76,8.17-8.51s-3.19-8.51-8.17-8.51S30.41,10.29,30.41,15,33.56,23.55,38.59,23.55Z"/><path class="cls-1" d="M97.15,0a14.74,14.74,0,0,1,15.18,15A15.18,15.18,0,0,1,82,15,14.71,14.71,0,0,1,97.15,0Zm0,23.55c5,0,8.17-3.76,8.17-8.51s-3.19-8.51-8.17-8.51S89,10.29,89,15,92.12,23.55,97.15,23.55Z"/><path class="cls-1" d="M0,.94H6.91V8.19a1.59,1.59,0,0,0,2.92.87L15.13.94h7.62L14,13.1a2.15,2.15,0,0,0,0,2.49l9.33,13.55H15.65L9.84,20.05a1.59,1.59,0,0,0-2.93.85v8.24H0Z"/><path class="cls-1" d="M57.67.94h6.91V8.19a1.6,1.6,0,0,0,2.93.87L72.81.94h7.61L71.63,13.1a2.18,2.18,0,0,0,0,2.49l9.34,13.55H73.32l-5.81-9.09a1.59,1.59,0,0,0-2.93.85v8.24H57.67Z"/><path class="cls-1" d="M122.26,28.2h-4.6V7.14A5.81,5.81,0,0,1,119.14,3a7.34,7.34,0,0,1,8.72-.28,9,9,0,0,1,2.24,3.57l7.68,16.81a2.29,2.29,0,0,0,.63.78,1.6,1.6,0,0,0,1.05.31,1.53,1.53,0,0,0,1.15-.41A1.46,1.46,0,0,0,141,22.7V1.88h4.64v21a5.83,5.83,0,0,1-1.5,4.19,6,6,0,0,1-4.55,1.58,7.8,7.8,0,0,1-2.39-.33,5.22,5.22,0,0,1-1.8-1,6.08,6.08,0,0,1-1.3-1.54,10,10,0,0,1-.94-2L125.5,7a1.71,1.71,0,0,0-1.64-1.13,1.62,1.62,0,0,0-1.19.41,1.53,1.53,0,0,0-.41,1.11Z"/><path class="cls-1" d="M139.61,29.67a8.89,8.89,0,0,1-2.7-.38,6.19,6.19,0,0,1-2.13-1.16,7.32,7.32,0,0,1-1.52-1.79,11.09,11.09,0,0,1-1-2.22L124.59,7.4c-.23-.5-.49-.55-.73-.55a.78.78,0,0,0-.48.12s-.12.12-.12.4V29.2h-6.6V7.14a6.83,6.83,0,0,1,1.75-4.84A8.28,8.28,0,0,1,128.53,2a9.81,9.81,0,0,1,2.51,4l7.65,16.74a1.31,1.31,0,0,0,.34.41.74.74,0,0,0,.43.09.69.69,0,0,0,.44-.11.45.45,0,0,0,.12-.37V.88h6.64v22a6.81,6.81,0,0,1-1.78,4.88A7,7,0,0,1,139.61,29.67Z"/><path class="cls-1" d="M172.68,22.78H157.94l-2.15,5.42h-5.07L160,4.8a4.57,4.57,0,0,1,2-2.63,7.18,7.18,0,0,1,3.49-.76,7,7,0,0,1,3.44.76,4.59,4.59,0,0,1,2,2.63l8.9,23.4h-5.11Zm-13-4.37H171L166.75,7a1.28,1.28,0,0,0-1.29-.89,1.35,1.35,0,0,0-1.32.89Z"/><path class="cls-1" d="M171.91,4.47a5.63,5.63,0,0,0-2.49-3.18A8.08,8.08,0,0,0,165.5.41a8.18,8.18,0,0,0-4,.88A5.55,5.55,0,0,0,159,4.43L149.25,29.2h7.22l2.15-5.42H172l2.07,5.42h7.25ZM161.12,17.41l3.94-10c.11-.26.21-.29.4-.29s.27,0,.36.25l3.78,10Z"/><path class="cls-1" d="M189.72,28.2h-4.56V7.3A5.89,5.89,0,0,1,186.72,3a6.31,6.31,0,0,1,4.75-1.62,6.83,6.83,0,0,1,4.45,1.34A6.6,6.6,0,0,1,198.1,6.6l3.71,16.1a1.67,1.67,0,0,0,1.75,1.48,1.72,1.72,0,0,0,1.76-1.48L209,6.6a6.91,6.91,0,0,1,2.09-3.85,6.51,6.51,0,0,1,4.39-1.34A6.33,6.33,0,0,1,220.26,3a5.89,5.89,0,0,1,1.56,4.27V28.2h-4.57V7.53a1.6,1.6,0,0,0-.48-1.23,2,2,0,0,0-1.39-.45,1.92,1.92,0,0,0-1.25.37,1.94,1.94,0,0,0-.58,1l-3.78,16.1a7.7,7.7,0,0,1-2.07,4,5.89,5.89,0,0,1-4.17,1.35,6.16,6.16,0,0,1-4.28-1.37,7.35,7.35,0,0,1-2.08-3.94l-3.75-16.1a1.84,1.84,0,0,0-.6-1,1.92,1.92,0,0,0-1.23-.37,1.94,1.94,0,0,0-1.38.45,1.58,1.58,0,0,0-.49,1.23Z"/><path class="cls-1" d="M222.82,7.3V29.2h-6.57V7.53c0-.34-.11-.45-.16-.49a1.09,1.09,0,0,0-.71-.19.9.9,0,0,0-.59.13.92.92,0,0,0-.27.51l-3.78,16.1a8.66,8.66,0,0,1-2.36,4.46,6.83,6.83,0,0,1-4.85,1.62A7.12,7.12,0,0,1,198.58,28a8.36,8.36,0,0,1-2.39-4.45L192.45,7.48a.87.87,0,0,0-.27-.49,1.06,1.06,0,0,0-.59-.14,1.09,1.09,0,0,0-.71.19s-.16.15-.16.49V29.2h-6.56V7.3a6.9,6.9,0,0,1,1.84-5A7.27,7.27,0,0,1,191.47.41,7.77,7.77,0,0,1,196.55,2a7.58,7.58,0,0,1,2.53,4.4l3.7,16.1c.16.65.44.7.78.7s.61-.05.79-.73l3.7-16.08A7.93,7.93,0,0,1,210.45,2,7.44,7.44,0,0,1,215.5.41,7.3,7.3,0,0,1,221,2.33,6.9,6.9,0,0,1,222.82,7.3Z"/><path class="cls-1" d="M248.34,4.47a5.59,5.59,0,0,0-2.49-3.18,9.26,9.26,0,0,0-7.88,0,5.52,5.52,0,0,0-2.5,3.14L225.69,29.2h7.22l2.14-5.42h13.37l2.07,5.42h7.25ZM237.56,17.41l3.93-10c.12-.26.22-.29.41-.29s.26,0,.35.25l3.78,10Z"/></g></g></svg>