<svg xmlns="http://www.w3.org/2000/svg" viewBox="0 0 449.56 57.46"><defs><style>.cls-1{fill:#fff;}</style></defs><title>Asset 3</title><g id="Layer_2" data-name="Layer 2"><g id="Layer_1-2" data-name="Layer 1"><path class="cls-1" d="M38.38,35.94a18.85,18.85,0,0,0-2.42-3,13.54,13.54,0,0,0-2.75-2.13,13.12,13.12,0,0,0-3.44-1.35,15.1,15.1,0,0,0,5.58-3.94,30.77,30.77,0,0,0,4-6.15L48.05,2.11H37.64L29.19,18.67A23.81,23.81,0,0,1,27,22.32a7.09,7.09,0,0,1-2.5,2.09,10.48,10.48,0,0,1-3.73.94q-2.26.21-5.78.21H9.68V2.11H0V57.46H9.68V34.34H15q3.94,0,6.4.21a12.62,12.62,0,0,1,4.1.94,7.28,7.28,0,0,1,2.71,2.05,21.12,21.12,0,0,1,2.21,3.53l8.45,16.4H49.69L40.75,40.08Q39.52,37.7,38.38,35.94Z"/><path class="cls-1" d="M141.28,35a18.35,18.35,0,0,0-2.36-3,13.2,13.2,0,0,0-2.68-2.08,12.79,12.79,0,0,0-3.36-1.32,14.74,14.74,0,0,0,5.44-3.84,30,30,0,0,0,3.92-6L150.72,2H140.56l-8.24,16.16a23.24,23.24,0,0,1-2.12,3.56,6.9,6.9,0,0,1-2.44,2,10.22,10.22,0,0,1-3.64.92q-2.2.2-5.64.2h-5.2V2h-9.44V56h9.44V33.4h5.2q3.84,0,6.24.2a12.31,12.31,0,0,1,4,.92,7.1,7.1,0,0,1,2.64,2A20.63,20.63,0,0,1,133.52,40l8.24,16h10.56L143.6,39Q142.4,36.68,141.28,35Z"/><path class="cls-1" d="M76.1,2H68.74Q56.9,2,50.62,8.68t-6.28,20.4q0,13.6,6.28,20.24T68.74,56H76.1q11.84,0,18.12-6.64t6.28-20.24q0-13.68-6.28-20.4T76.1,2ZM87.42,42.4q-3.56,4.12-11.32,4.12H68.74q-7.92,0-11.44-4.08T53.78,29.08q0-9.36,3.56-13.52t11.4-4.16H76.1q7.84,0,11.36,4.16T91,29Q91,38.28,87.42,42.4Z"/><path class="cls-1" d="M431.32,7a9.84,9.84,0,0,0-4.2-5.4,14.09,14.09,0,0,0-7-1.56A14.28,14.28,0,0,0,413,1.56,10.18,10.18,0,0,0,408.76,7L394.41,43.28,382,10a17.84,17.84,0,0,0-4.44-7.32Q374.76,0,369.32,0q-6,0-9,3.24a12,12,0,0,0-3,8.52V43.68a3.15,3.15,0,0,1-.76,2.2,2.52,2.52,0,0,1-2,.84,3,3,0,0,1-3-2.24L338.44,10A17.85,17.85,0,0,0,334,2.68Q331.16,0,325.72,0q-6,0-9,3.24a12,12,0,0,0-3,8.52V29.82l-8.4-22.11a9.84,9.84,0,0,0-4.2-5.4,14.09,14.09,0,0,0-7-1.56A14.28,14.28,0,0,0,287,2.31a10.18,10.18,0,0,0-4.28,5.4l-19,48h10.4l17.12-43.44A2.77,2.77,0,0,1,294,10.43a2.63,2.63,0,0,1,2.64,1.84l16.4,43.44h10.16V12.24A3.27,3.27,0,0,1,324,10a2.52,2.52,0,0,1,2-.84,2.71,2.71,0,0,1,1.8.64,4,4,0,0,1,1.16,1.68L342,45.92a17.62,17.62,0,0,0,4.48,7.32q2.88,2.68,8.32,2.68,6,0,9-3.24a12.25,12.25,0,0,0,3-8.6V12.24a3.17,3.17,0,0,1,.8-2.28,2.88,2.88,0,0,1,3.84-.2,4.25,4.25,0,0,1,1.12,1.68L388.68,55H400.2l17.12-43.44A2.77,2.77,0,0,1,420,9.68a2.63,2.63,0,0,1,2.64,1.84L439.08,55h10.48Z"/><path class="cls-1" d="M179.1,2h-7.36Q159.9,2,153.62,8.68t-6.28,20.4q0,13.6,6.28,20.24T171.74,56h7.36q11.84,0,18.12-6.64t6.28-20.24q0-13.68-6.28-20.4T179.1,2ZM190.42,42.4q-3.56,4.12-11.32,4.12h-7.36q-7.92,0-11.44-4.08t-3.52-13.36q0-9.36,3.56-13.52t11.4-4.16h7.36q7.84,0,11.36,4.16T194,29Q194,38.28,190.42,42.4Z"/><path class="cls-1" d="M254.18,44.68a3,3,0,0,1-.84,2.2,3.19,3.19,0,0,1-2.36.84,3.36,3.36,0,0,1-2.16-.64,4.71,4.71,0,0,1-1.28-1.6L231.78,11a18.07,18.07,0,0,0-4.6-7.32Q224.25,1,218.66,1q-6.32,0-9.36,3.24a11.94,11.94,0,0,0-3,8.52V56h9.44V13.24a3.08,3.08,0,0,1,.84-2.28,3.31,3.31,0,0,1,2.44-.84,3.49,3.49,0,0,1,3.36,2.32L238.1,46.92A21.22,21.22,0,0,0,240,51.08a12.82,12.82,0,0,0,2.68,3.16,10.65,10.65,0,0,0,3.68,2,16.15,16.15,0,0,0,4.92.68q6.24,0,9.32-3.24a12,12,0,0,0,3.08-8.6V2h-9.52Z"/></g></g></svg>