<svg xmlns="http://www.w3.org/2000/svg" viewBox="0 0 258.97 31.08"><defs><style>.cls-1{fill:none;stroke:#fff;stroke-miterlimit:10;}</style></defs><title>outline_1</title><g id="Layer_2" data-name="Layer 2"><g id="Layer_1-2" data-name="Layer 1"><path class="cls-1" d="M39.09.5a14.74,14.74,0,0,1,15.18,15,14.74,14.74,0,0,1-15.18,15,14.71,14.71,0,0,1-15.18-15A14.71,14.71,0,0,1,39.09.5Zm0,23.55c5,0,8.17-3.76,8.17-8.51S44.07,7,39.09,7s-8.18,3.76-8.18,8.51S34.06,24.05,39.09,24.05Z"/><path class="cls-1" d="M97.65.5a14.74,14.74,0,0,1,15.18,15,15.18,15.18,0,0,1-30.36,0A14.71,14.71,0,0,1,97.65.5Zm0,23.55c5,0,8.17-3.76,8.17-8.51S102.63,7,97.65,7s-8.18,3.76-8.18,8.51S92.62,24.05,97.65,24.05Z"/><path class="cls-1" d="M.5,1.44H7.41V8.69a1.59,1.59,0,0,0,2.92.87l5.3-8.12h7.62L14.46,13.6a2.15,2.15,0,0,0,0,2.49l9.33,13.55H16.15l-5.81-9.09a1.59,1.59,0,0,0-2.93.85v8.24H.5Z"/><path class="cls-1" d="M58.17,1.44h6.91V8.69A1.6,1.6,0,0,0,68,9.56l5.3-8.12h7.61L72.13,13.6a2.18,2.18,0,0,0,0,2.49l9.34,13.55H73.82L68,20.55a1.59,1.59,0,0,0-2.93.85v8.24H58.17Z"/><path class="cls-1" d="M147.16,1.38v22a6.85,6.85,0,0,1-1.77,4.88,7,7,0,0,1-5.27,1.89,9,9,0,0,1-2.71-.38,6.37,6.37,0,0,1-2.13-1.16,7.32,7.32,0,0,1-1.52-1.79,11.07,11.07,0,0,1-1-2.22L125.09,7.9c-.23-.5-.49-.55-.73-.55a.78.78,0,0,0-.48.12.51.51,0,0,0-.12.4V29.7h-6.6V7.64a6.83,6.83,0,0,1,1.75-4.84A8.28,8.28,0,0,1,129,2.48a9.81,9.81,0,0,1,2.51,4l7.65,16.74a1.46,1.46,0,0,0,.34.41.76.76,0,0,0,.43.09.69.69,0,0,0,.44-.11.45.45,0,0,0,.12-.37V1.38Z"/><path class="cls-1" d="M172.41,5a5.63,5.63,0,0,0-2.49-3.18A8.08,8.08,0,0,0,166,.91a8.18,8.18,0,0,0-4,.88,5.55,5.55,0,0,0-2.49,3.14L149.75,29.7H157l2.15-5.42h13.37l2.07,5.42h7.25ZM161.62,17.91l3.94-10c.11-.26.21-.29.4-.29s.27,0,.36.25l3.78,10Z"/><path class="cls-1" d="M223.32,7.8V29.7h-6.57V8c0-.34-.11-.45-.16-.49a1.09,1.09,0,0,0-.71-.19.9.9,0,0,0-.59.13A.92.92,0,0,0,215,8l-3.78,16.1a8.66,8.66,0,0,1-2.36,4.46A6.83,6.83,0,0,1,204,30.17a7.12,7.12,0,0,1-4.95-1.63,8.36,8.36,0,0,1-2.39-4.45L193,8a.87.87,0,0,0-.27-.49,1.06,1.06,0,0,0-.59-.14,1.09,1.09,0,0,0-.71.19s-.16.15-.16.49V29.7h-6.56V7.8a6.9,6.9,0,0,1,1.84-5A7.27,7.27,0,0,1,192,.91a7.77,7.77,0,0,1,5.08,1.57,7.58,7.58,0,0,1,2.53,4.4l3.7,16.1c.16.65.44.7.78.7s.61-.05.79-.73l3.7-16.08A7.93,7.93,0,0,1,211,2.5,7.44,7.44,0,0,1,216,.91a7.3,7.3,0,0,1,5.48,1.92A6.9,6.9,0,0,1,223.32,7.8Z"/><path class="cls-1" d="M248.84,5a5.59,5.59,0,0,0-2.49-3.18,9.26,9.26,0,0,0-7.88,0A5.52,5.52,0,0,0,236,4.93L226.19,29.7h7.22l2.14-5.42h13.37L251,29.7h7.25ZM238.06,17.91l3.93-10c.12-.26.22-.29.41-.29s.26,0,.35.25l3.78,10Z"/></g></g></svg>