<svg id="Layer_1" data-name="Layer 1" xmlns="http://www.w3.org/2000/svg" viewBox="0 0 449.56 57.46"><defs><style>.cls-1{fill:#fff;}</style></defs><title>Kokonama logo</title><path class="cls-1" d="M327.1,378.48a18.85,18.85,0,0,0-2.42-3,13.54,13.54,0,0,0-2.75-2.13,13.12,13.12,0,0,0-3.44-1.35,15.1,15.1,0,0,0,5.58-3.94,30.77,30.77,0,0,0,4-6.15l8.69-17.22H326.36l-8.45,16.56a23.81,23.81,0,0,1-2.17,3.65,7.09,7.09,0,0,1-2.5,2.09,10.48,10.48,0,0,1-3.73.94q-2.26.21-5.78.21H298.4V344.65h-9.68V400h9.68V376.88h5.33q3.94,0,6.4.21a12.62,12.62,0,0,1,4.1.94,7.28,7.28,0,0,1,2.71,2.05,21.12,21.12,0,0,1,2.21,3.53l8.45,16.4h10.82l-8.94-17.38Q328.25,380.24,327.1,378.48Z" transform="translate(-288.72 -342.54)"/><path class="cls-1" d="M430,377.5a18.35,18.35,0,0,0-2.36-3,13.2,13.2,0,0,0-2.68-2.08,12.79,12.79,0,0,0-3.36-1.32A14.74,14.74,0,0,0,427,367.3a30,30,0,0,0,3.92-6l8.48-16.8H429.28L421,360.66a23.24,23.24,0,0,1-2.12,3.56,6.9,6.9,0,0,1-2.44,2,10.22,10.22,0,0,1-3.64.92q-2.2.2-5.64.2H402V344.5h-9.44v54H402V375.94h5.2q3.84,0,6.24.2a12.31,12.31,0,0,1,4,.92,7.1,7.1,0,0,1,2.64,2,20.63,20.63,0,0,1,2.16,3.44l8.24,16H441l-8.72-17Q431.12,379.22,430,377.5Z" transform="translate(-288.72 -342.54)"/><path class="cls-1" d="M364.82,344.5h-7.36q-11.84,0-18.12,6.72t-6.28,20.4q0,13.6,6.28,20.24t18.12,6.64h7.36q11.84,0,18.12-6.64t6.28-20.24q0-13.68-6.28-20.4T364.82,344.5Zm11.32,40.44q-3.56,4.12-11.32,4.12h-7.36q-7.92,0-11.44-4.08t-3.52-13.36q0-9.36,3.56-13.52t11.4-4.16h7.36q7.84,0,11.36,4.16t3.52,13.44Q379.7,380.82,376.14,384.94Z" transform="translate(-288.72 -342.54)"/><path class="cls-1" d="M720,349.5a9.84,9.84,0,0,0-4.2-5.4,14.09,14.09,0,0,0-7-1.56,14.28,14.28,0,0,0-7.08,1.56,10.18,10.18,0,0,0-4.28,5.4l-14.35,36.32-12.38-33.28a17.84,17.84,0,0,0-4.44-7.32q-2.84-2.68-8.28-2.68-6,0-9,3.24a12,12,0,0,0-3,8.52v31.92a3.15,3.15,0,0,1-.76,2.2,2.52,2.52,0,0,1-2,.84,3,3,0,0,1-3-2.24l-13.12-34.48a17.85,17.85,0,0,0-4.44-7.32q-2.84-2.68-8.28-2.68-6,0-9,3.24a12,12,0,0,0-3,8.52v18.06L594,350.25a9.84,9.84,0,0,0-4.2-5.4,14.09,14.09,0,0,0-7-1.56,14.28,14.28,0,0,0-7.08,1.56,10.18,10.18,0,0,0-4.28,5.4l-19,48h10.4L580,354.81a2.77,2.77,0,0,1,2.72-1.84,2.63,2.63,0,0,1,2.64,1.84l16.4,43.44H612V354.78a3.27,3.27,0,0,1,.76-2.28,2.52,2.52,0,0,1,2-.84,2.71,2.71,0,0,1,1.8.64,4,4,0,0,1,1.16,1.68l13.12,34.48a17.62,17.62,0,0,0,4.48,7.32q2.88,2.68,8.32,2.68,6,0,9-3.24a12.25,12.25,0,0,0,3-8.6V354.78a3.17,3.17,0,0,1,.8-2.28,2.88,2.88,0,0,1,3.84-.2,4.25,4.25,0,0,1,1.12,1.68L677.4,397.5h11.52L706,354.06a2.77,2.77,0,0,1,2.72-1.84,2.63,2.63,0,0,1,2.64,1.84l16.4,43.44h10.48Z" transform="translate(-288.72 -342.54)"/><path class="cls-1" d="M467.82,344.5h-7.36q-11.84,0-18.12,6.72t-6.28,20.4q0,13.6,6.28,20.24t18.12,6.64h7.36q11.84,0,18.12-6.64t6.28-20.24q0-13.68-6.28-20.4T467.82,344.5Zm11.32,40.44q-3.56,4.12-11.32,4.12h-7.36q-7.92,0-11.44-4.08t-3.52-13.36q0-9.36,3.56-13.52t11.4-4.16h7.36q7.84,0,11.36,4.16t3.52,13.44Q482.7,380.82,479.14,384.94Z" transform="translate(-288.72 -342.54)"/><path class="cls-1" d="M542.9,387.22a3,3,0,0,1-.84,2.2,3.19,3.19,0,0,1-2.36.84,3.36,3.36,0,0,1-2.16-.64,4.71,4.71,0,0,1-1.28-1.6L520.5,353.54a18.07,18.07,0,0,0-4.6-7.32q-2.92-2.68-8.52-2.68-6.32,0-9.36,3.24a11.94,11.94,0,0,0-3,8.52v43.2h9.44V355.78a3.08,3.08,0,0,1,.84-2.28,3.31,3.31,0,0,1,2.44-.84,3.49,3.49,0,0,1,3.36,2.32l15.76,34.48a21.22,21.22,0,0,0,1.92,4.16,12.82,12.82,0,0,0,2.68,3.16,10.65,10.65,0,0,0,3.68,2,16.15,16.15,0,0,0,4.92.68q6.24,0,9.32-3.24a12,12,0,0,0,3.08-8.6V344.5H542.9Z" transform="translate(-288.72 -342.54)"/></svg>