<!DOCTYPE svg PUBLIC "-//W3C//DTD SVG 20010904//EN" "http://www.w3.org/TR/2001/REC-SVG-20010904/DTD/svg10.dtd">
<svg version="1.0" xmlns="http://www.w3.org/2000/svg" width="469px" height="139px" viewBox="0 0 4690 1390" preserveAspectRatio="xMidYMid meet">
<g id="layer101" fill="#ffffff" stroke="none">
 <path d="M418 1371 c-133 -27 -280 -151 -348 -293 -52 -108 -64 -205 -57 -453 5 -159 8 -188 30 -247 55 -151 148 -258 284 -325 l77 -38 905 0 906 0 54 28 c70 37 142 112 178 184 24 51 28 71 31 168 2 61 -1 130 -7 155 -5 24 -8 46 -7 48 8 8 445 14 547 8 l116 -8 -14 -51 c-18 -67 -12 -245 9 -305 9 -24 29 -62 45 -84 35 -52 132 -124 184 -138 27 -8 232 -10 623 -8 l583 3 45 37 c87 72 83 32 86 721 l3 607 -134 0 -134 0 -7 -532 c-6 -478 -9 -534 -23 -545 -22 -17 -884 -19 -932 -2 -38 14 -63 56 -63 113 -1 63 10 84 55 107 37 19 65 22 306 29 283 9 332 16 417 65 49 29 101 85 140 151 29 48 29 51 29 209 0 149 -2 163 -24 205 -29 55 -118 142 -174 173 -42 22 -46 22 -535 25 l-493 3 3 -133 3 -133 410 -8 c226 -5 427 -13 448 -18 55 -15 79 -57 74 -133 -3 -49 -8 -63 -30 -82 -42 -36 -82 -41 -373 -52 -263 -9 -273 -10 -329 -36 -32 -15 -78 -42 -101 -62 l-43 -35 -3 83 -3 83 -380 0 -380 0 -3 -40 c-1 -22 -5 -55 -8 -73 l-5 -33 -58 53 c-32 30 -72 61 -89 69 l-31 15 96 169 c120 213 193 348 193 358 0 4 -71 7 -157 7 l-158 0 -150 -256 -150 -256 -162 4 c-90 2 -165 6 -167 9 -2 2 -8 115 -12 252 l-7 247 -138 0 -139 0 0 -127 -1 -128 -21 43 c-30 62 -113 149 -172 180 l-51 27 -285 2 c-157 1 -302 -2 -322 -6z m538 -288 c32 -18 54 -74 54 -136 0 -128 -16 -137 -263 -151 l-192 -11 0 -120 0 -120 232 -3 c229 -2 234 -2 280 22 84 42 127 81 163 144 19 34 38 62 41 62 4 0 9 -19 12 -42 4 -35 14 -51 53 -85 l48 -43 181 -1 c99 0 259 -4 355 -8 193 -8 216 -15 247 -75 18 -35 20 -118 4 -158 -6 -16 -27 -36 -51 -48 -39 -20 -60 -21 -548 -26 -542 -6 -1032 6 -1095 27 -128 43 -197 206 -182 434 13 184 55 268 164 326 l56 29 210 -3 c142 -1 217 -6 231 -14z"/>
 </g>

</svg>