<?xml version="1.0" standalone="no"?>
<!DOCTYPE svg PUBLIC "-//W3C//DTD SVG 20010904//EN"
 "http://www.w3.org/TR/2001/REC-SVG-20010904/DTD/svg10.dtd">
<svg version="1.0" xmlns="http://www.w3.org/2000/svg"
 width="1600.000000pt" height="900.000000pt" viewBox="0 0 1600.000000 900.000000"
 preserveAspectRatio="xMidYMid meet">
<metadata>
Created by potrace 1.15, written by Peter Selinger 2001-2017
</metadata>
<g transform="translate(0.000000,900.000000) scale(0.100000,-0.100000)"
fill="#FFFFFF" stroke="none">
<path d="M10075 5919 c-33 -3 -76 -13 -95 -21 -40 -17 -94 -67 -114 -107 -8
-14 -114 -278 -236 -586 -122 -308 -230 -581 -241 -607 l-19 -48 138 0 137 0
214 543 c118 298 221 550 229 560 18 20 61 22 85 5 9 -7 109 -259 223 -560
l207 -548 138 0 139 0 0 523 c0 335 4 536 11 560 16 60 83 71 116 19 5 -9 88
-219 183 -467 95 -247 181 -468 192 -490 26 -53 83 -112 133 -138 30 -16 64
-22 137 -25 122 -5 183 13 243 73 74 74 75 81 75 564 0 455 4 495 46 511 30
12 67 -3 83 -34 7 -11 101 -262 210 -556 l198 -535 139 -3 139 -2 214 542
c118 299 221 551 229 561 18 20 61 22 85 5 9 -7 109 -259 223 -560 l207 -548
139 0 138 0 -13 33 c-7 17 -114 297 -238 621 -206 541 -227 593 -267 637 -30
33 -57 52 -91 64 -65 21 -207 21 -271 0 -50 -17 -110 -67 -134 -113 -10 -20
-257 -638 -348 -872 -8 -22 -31 31 -167 395 -86 231 -165 435 -175 453 -24 46
-84 104 -131 127 -33 16 -61 20 -155 20 -99 0 -121 -3 -155 -21 -55 -30 -94
-70 -119 -124 -20 -43 -21 -64 -26 -506 -4 -370 -8 -464 -19 -477 -18 -23 -74
-22 -95 2 -9 10 -93 218 -186 462 -94 244 -184 472 -201 507 -61 123 -147 167
-307 160 -108 -5 -154 -22 -209 -80 -64 -66 -67 -85 -73 -381 l-5 -268 -115
301 c-123 326 -151 374 -230 408 -46 19 -140 29 -215 21z"/>
<path d="M8153 5899 c-66 -26 -127 -93 -148 -162 -13 -42 -15 -144 -15 -619
l0 -568 120 0 120 0 0 523 c0 320 4 536 10 558 17 61 102 77 135 25 12 -18
378 -812 433 -938 25 -58 93 -133 147 -161 57 -30 221 -36 296 -12 71 24 133
83 159 151 19 53 20 76 20 629 l0 575 -120 0 -119 0 -3 -544 c-3 -519 -4 -545
-22 -565 -27 -29 -86 -28 -113 2 -18 18 -193 391 -409 870 -63 140 -95 183
-166 222 -48 27 -63 30 -163 32 -92 3 -119 0 -162 -18z"/>
<path d="M3090 5225 l0 -675 120 0 120 0 0 281 0 281 163 -4 c184 -5 228 -17
283 -80 17 -20 82 -135 145 -257 l113 -221 139 0 c77 0 137 4 135 9 -1 5 -61
122 -132 259 -150 292 -189 347 -275 390 l-60 30 49 30 c74 46 117 111 254
377 69 135 126 248 126 251 0 2 -60 4 -132 4 l-133 0 -124 -240 c-131 -254
-158 -291 -228 -309 -21 -5 -102 -13 -180 -17 l-143 -7 0 287 0 286 -120 0
-120 0 0 -675z"/>
<path d="M4522 5880 c-199 -52 -325 -183 -384 -399 -18 -64 -21 -104 -21 -256
0 -153 3 -192 21 -260 61 -222 195 -357 399 -400 97 -21 474 -20 562 0 202 48
331 176 393 390 20 71 23 101 23 265 -1 211 -13 278 -72 398 -68 137 -196 235
-352 268 -45 9 -134 14 -281 13 -179 0 -227 -3 -288 -19z m571 -258 c79 -39
126 -94 153 -180 34 -108 34 -319 0 -434 -24 -85 -68 -137 -151 -178 l-70 -35
-210 0 -210 0 -70 35 c-82 41 -126 92 -152 178 -26 82 -26 355 0 428 28 80 70
139 123 170 77 45 130 54 334 51 l185 -2 68 -33z"/>
<path d="M5540 5225 l0 -675 120 0 120 0 0 281 0 281 163 -4 c184 -5 228 -17
283 -80 17 -20 82 -135 145 -257 l113 -221 139 0 c77 0 137 4 135 9 -1 5 -61
122 -132 259 -150 292 -189 347 -275 390 l-60 30 49 30 c74 46 117 111 254
377 69 135 126 248 126 251 0 2 -60 4 -132 4 l-133 0 -124 -240 c-131 -254
-158 -291 -228 -309 -21 -5 -102 -13 -180 -17 l-143 -7 0 287 0 286 -120 0
-120 0 0 -675z"/>
<path d="M6972 5880 c-199 -52 -325 -183 -384 -399 -18 -64 -21 -104 -21 -256
0 -153 3 -192 21 -260 61 -222 195 -357 399 -400 97 -21 474 -20 562 0 202 48
331 176 393 390 20 71 23 101 23 265 -1 211 -13 278 -72 398 -68 137 -196 235
-352 268 -45 9 -134 14 -281 13 -179 0 -227 -3 -288 -19z m571 -258 c79 -39
126 -94 153 -180 34 -108 34 -319 0 -434 -24 -85 -68 -137 -151 -178 l-70 -35
-210 0 -210 0 -70 35 c-82 41 -126 92 -152 178 -26 82 -26 355 0 428 28 80 70
139 123 170 77 45 130 54 334 51 l185 -2 68 -33z"/>
</g>
</svg>
