<!DOCTYPE svg PUBLIC "-//W3C//DTD SVG 20010904//EN" "http://www.w3.org/TR/2001/REC-SVG-20010904/DTD/svg10.dtd">
<svg version="1.0" xmlns="http://www.w3.org/2000/svg" width="1600px" height="900px" viewBox="0 0 8000 4500" preserveAspectRatio="xMidYMid meet">
<g id="layer101" fill="#ffffff" stroke="none">
 <path d="M5695 3994 c-318 -67 -475 -290 -475 -679 0 -351 131 -569 397 -662 43 -16 132 -18 873 -21 611 -2 839 0 880 9 146 31 253 129 294 268 20 69 21 189 1 264 -8 32 -15 60 -15 62 0 3 160 5 356 5 335 0 356 -1 349 -17 -49 -129 -45 -293 11 -404 30 -61 111 -132 182 -161 l57 -23 560 0 c557 0 560 0 601 22 54 29 100 83 116 135 10 33 13 178 13 623 l0 580 -125 0 -125 0 -5 -533 -5 -534 -24 -19 c-22 -18 -44 -19 -465 -18 -327 0 -450 4 -476 13 -50 18 -80 67 -80 130 0 68 16 97 70 124 42 21 56 22 265 22 320 1 414 22 515 116 27 25 62 72 77 103 27 53 28 63 28 196 0 133 -1 143 -28 197 -35 72 -119 149 -195 180 -57 23 -59 23 -517 23 l-460 0 0 -125 0 -125 420 -5 c377 -4 423 -7 452 -23 65 -35 89 -113 59 -191 -14 -37 -26 -49 -64 -67 -44 -22 -64 -23 -322 -29 -222 -6 -284 -10 -320 -24 -67 -25 -124 -61 -158 -101 l-31 -35 -3 98 -3 97 -370 0 -370 0 -5 -94 -5 -93 -33 45 c-32 45 -141 127 -169 127 -21 0 -22 -2 141 281 80 139 143 256 140 261 -3 4 -68 8 -144 8 l-138 0 -152 -260 -153 -260 -178 0 c-99 0 -180 1 -181 3 -1 1 -5 117 -8 257 l-5 255 -125 0 -125 0 0 -320 c0 -358 0 -357 72 -412 l36 -28 346 -5 c326 -5 348 -6 381 -26 56 -33 80 -77 80 -148 0 -77 -24 -120 -83 -146 -40 -19 -74 -20 -792 -20 -808 0 -819 1 -907 53 -106 62 -155 224 -136 457 12 164 60 250 165 302 l68 33 205 0 c228 0 247 -5 286 -69 26 -42 27 -160 1 -199 -34 -52 -66 -60 -262 -66 l-180 -6 0 -110 0 -110 225 0 226 0 66 33 c76 37 120 82 157 162 24 51 26 65 26 200 0 130 -2 150 -23 195 -53 114 -120 177 -229 214 -56 19 -84 21 -285 20 -123 -1 -232 -3 -243 -5z"/>
 </g>

</svg>