<svg id="Layer_1" data-name="Layer 1" xmlns="http://www.w3.org/2000/svg" viewBox="0 0 449.56 57.46"><defs><style>.cls-1{fill:#fff;}</style></defs><title>Untitled-3</title><path class="cls-1" d="M329.1,376.48a18.85,18.85,0,0,0-2.42-3,13.54,13.54,0,0,0-2.75-2.13,13.12,13.12,0,0,0-3.44-1.35,15.1,15.1,0,0,0,5.58-3.94,30.77,30.77,0,0,0,4-6.15l8.69-17.22H328.36l-8.45,16.56a23.81,23.81,0,0,1-2.17,3.65,7.09,7.09,0,0,1-2.5,2.09,10.48,10.48,0,0,1-3.73.94q-2.26.21-5.78.21H300.4V342.65h-9.68V398h9.68V374.88h5.33q3.94,0,6.4.21a12.62,12.62,0,0,1,4.1.94,7.28,7.28,0,0,1,2.71,2.05,21.12,21.12,0,0,1,2.21,3.53l8.45,16.4h10.82l-8.94-17.38Q330.25,378.24,329.1,376.48Z" transform="translate(-290.72 -340.54)"/><path class="cls-1" d="M432,375.5a18.35,18.35,0,0,0-2.36-3,13.2,13.2,0,0,0-2.68-2.08,12.79,12.79,0,0,0-3.36-1.32A14.74,14.74,0,0,0,429,365.3a30,30,0,0,0,3.92-6l8.48-16.8H431.28L423,358.66a23.24,23.24,0,0,1-2.12,3.56,6.9,6.9,0,0,1-2.44,2,10.22,10.22,0,0,1-3.64.92q-2.2.2-5.64.2H404V342.5h-9.44v54H404V373.94h5.2q3.84,0,6.24.2a12.31,12.31,0,0,1,4,.92,7.1,7.1,0,0,1,2.64,2,20.63,20.63,0,0,1,2.16,3.44l8.24,16H443l-8.72-17Q433.12,377.22,432,375.5Z" transform="translate(-290.72 -340.54)"/><path class="cls-1" d="M366.82,342.5h-7.36q-11.84,0-18.12,6.72t-6.28,20.4q0,13.6,6.28,20.24t18.12,6.64h7.36q11.84,0,18.12-6.64t6.28-20.24q0-13.68-6.28-20.4T366.82,342.5Zm11.32,40.44q-3.56,4.12-11.32,4.12h-7.36q-7.92,0-11.44-4.08t-3.52-13.36q0-9.36,3.56-13.52t11.4-4.16h7.36q7.84,0,11.36,4.16t3.52,13.44Q381.7,378.82,378.14,382.94Z" transform="translate(-290.72 -340.54)"/><path class="cls-1" d="M722,347.5a9.84,9.84,0,0,0-4.2-5.4,14.09,14.09,0,0,0-7-1.56,14.28,14.28,0,0,0-7.08,1.56,10.18,10.18,0,0,0-4.28,5.4l-14.35,36.32-12.38-33.28a17.84,17.84,0,0,0-4.44-7.32q-2.84-2.68-8.28-2.68-6,0-9,3.24a12,12,0,0,0-3,8.52v31.92a3.15,3.15,0,0,1-.76,2.2,2.52,2.52,0,0,1-2,.84,3,3,0,0,1-3-2.24l-13.12-34.48a17.85,17.85,0,0,0-4.44-7.32q-2.84-2.68-8.28-2.68-6,0-9,3.24a12,12,0,0,0-3,8.52v18.06L596,348.25a9.84,9.84,0,0,0-4.2-5.4,14.09,14.09,0,0,0-7-1.56,14.28,14.28,0,0,0-7.08,1.56,10.18,10.18,0,0,0-4.28,5.4l-19,48h10.4L582,352.81a2.77,2.77,0,0,1,2.72-1.84,2.63,2.63,0,0,1,2.64,1.84l16.4,43.44h10.48l-.32-.84V352.78a3.27,3.27,0,0,1,.76-2.28,2.52,2.52,0,0,1,2-.84,2.71,2.71,0,0,1,1.8.64,4,4,0,0,1,1.16,1.68l13.12,34.48a17.62,17.62,0,0,0,4.48,7.32q2.88,2.68,8.32,2.68,6,0,9-3.24a12.25,12.25,0,0,0,3-8.6V352.78a3.17,3.17,0,0,1,.8-2.28,2.88,2.88,0,0,1,3.84-.2,4.25,4.25,0,0,1,1.12,1.68L679.4,395.5h11.52L708,352.06a2.77,2.77,0,0,1,2.72-1.84,2.63,2.63,0,0,1,2.64,1.84l16.4,43.44h10.48Z" transform="translate(-290.72 -340.54)"/><path class="cls-1" d="M469.82,342.5h-7.36q-11.84,0-18.12,6.72t-6.28,20.4q0,13.6,6.28,20.24t18.12,6.64h7.36q11.84,0,18.12-6.64t6.28-20.24q0-13.68-6.28-20.4T469.82,342.5Zm11.32,40.44q-3.56,4.12-11.32,4.12h-7.36q-7.92,0-11.44-4.08t-3.52-13.36q0-9.36,3.56-13.52t11.4-4.16h7.36q7.84,0,11.36,4.16t3.52,13.44Q484.7,378.82,481.14,382.94Z" transform="translate(-290.72 -340.54)"/><path class="cls-1" d="M544.9,385.22a3,3,0,0,1-.84,2.2,3.19,3.19,0,0,1-2.36.84,3.36,3.36,0,0,1-2.16-.64,4.71,4.71,0,0,1-1.28-1.6L522.5,351.54a18.07,18.07,0,0,0-4.6-7.32q-2.92-2.68-8.52-2.68-6.32,0-9.36,3.24a11.94,11.94,0,0,0-3,8.52v43.2h9.44V353.78a3.08,3.08,0,0,1,.84-2.28,3.31,3.31,0,0,1,2.44-.84,3.49,3.49,0,0,1,3.36,2.32l15.76,34.48a21.22,21.22,0,0,0,1.92,4.16,12.82,12.82,0,0,0,2.68,3.16,10.65,10.65,0,0,0,3.68,2,16.15,16.15,0,0,0,4.92.68q6.24,0,9.32-3.24a12,12,0,0,0,3.08-8.6V342.5H544.9Z" transform="translate(-290.72 -340.54)"/></svg>